<?xml version="1.0" encoding="utf-8"?>
<!-- Generator: Adobe Illustrator 26.0.2, SVG Export Plug-In . SVG Version: 6.00 Build 0)  -->
<svg version="1.1" id="Layer_1" xmlns="http://www.w3.org/2000/svg" xmlns:xlink="http://www.w3.org/1999/xlink" x="0px" y="0px"
	 viewBox="0 0 974 882" style="enable-background:new 0 0 974 882;" xml:space="preserve">
<style type="text/css">
	.st0{opacity:0.5;fill:none;stroke:#2D2E40;stroke-width:1.1236;enable-background:new    ;}
	.st1{opacity:0.25;fill:none;stroke:#2D2E40;stroke-width:1.1236;enable-background:new    ;}
	.st2{opacity:8.000000e-02;fill-rule:evenodd;clip-rule:evenodd;fill:#2D2E40;enable-background:new    ;}
	.st3{fill:#535353;}
	.st4{fill:#1D1D25;}
	.st5{fill:url(#b_00000097459392820388782530000001917710231960597396_);}
	.st6{filter:url(#Adobe_OpacityMaskFilter);}
	.st7{fill-rule:evenodd;clip-rule:evenodd;fill:#FFFFFF;}
	.st8{mask:url(#d_00000111159034442979062890000001283762566507415459_);fill:#F9F6F6;}
	.st9{filter:url(#Adobe_OpacityMaskFilter_00000168103248149864959140000006340259065912763575_);}
	.st10{mask:url(#d_00000098914863223575434720000007091367028573222589_);}
	.st11{fill:#FFFFFF;}
	.st12{fill:#E7E7E7;}
	.st13{opacity:9.800000e-02;}
	.st14{fill:#4A5166;}
	.st15{filter:url(#Adobe_OpacityMaskFilter_00000066498887858689269220000015684055127139316917_);}
	.st16{mask:url(#f_00000106867155763067630670000016859041359237640351_);fill:#2F2F47;}
	.st17{fill:#2F2F47;}
</style>
<g>
	<path class="st0" d="M440.4,816.2L440.4,816.2c206.3,0,373.6-167.3,373.6-373.6v-2.2c0-206.3-167.3-373.6-373.6-373.6l0,0
		c-206.3,0-373.6,167.3-373.6,373.6v2.2C66.8,648.9,234.1,816.2,440.4,816.2z"/>
	<path class="st1" d="M440.4,882.5L440.4,882.5c242.9,0,439.9-196.9,439.9-439.9v-2.2c0-242.9-196.9-439.9-439.9-439.9l0,0
		C197.4,0.5,0.5,197.4,0.5,440.4v2.2C0.5,685.6,197.4,882.5,440.4,882.5z"/>
	<path class="st2" d="M440.4,751.6L440.4,751.6c170.6,0,309-138.3,309-309v-2.2c0-170.6-138.3-309-309-309l0,0
		c-170.6,0-309,138.3-309,309v2.2C131.4,613.3,269.7,751.6,440.4,751.6z"/>
	<g transform="translate(190 192)">
		<path class="st3" d="M129,41.6h577.5c7.4,0,13.5,6,13.5,13.5v386.5c0,7.4-6,13.5-13.5,13.5H129c-7.4,0-13.5-6-13.5-13.5V55.1
			C115.5,47.7,121.6,41.6,129,41.6z"/>
		<path class="st4" d="M130.2,45h575.3c6.2,0,11.2,5,11.2,11.2v384.3c0,6.2-5,11.2-11.2,11.2H130.2c-6.2,0-11.2-5-11.2-11.2V56.2
			C118.9,50,123.9,45,130.2,45z"/>
		<g transform="translate(99 32)">
			<g>
				
					<linearGradient id="b_00000154405385977835687100000004240458303379861427_" gradientUnits="userSpaceOnUse" x1="-483.5442" y1="552.6303" x2="-482.4206" y2="552.1353" gradientTransform="matrix(506 0 0 -335.872 244709 185746.2188)">
					<stop  offset="0" style="stop-color:#FF8F71"/>
					<stop  offset="1" style="stop-color:#FF3E55"/>
				</linearGradient>
				
					<path id="b_00000109727788397271086100000007987706485404440977_" style="fill:url(#b_00000154405385977835687100000004240458303379861427_);" d="
					M39,27.6h561.8c1.9,0,3.4,1.5,3.4,3.4v370.6c0,1.9-1.5,3.4-3.4,3.4H39c-1.9,0-3.4-1.5-3.4-3.4V31C35.6,29.1,37.2,27.6,39,27.6z"
					/>
			</g>
			<defs>
				<filter id="Adobe_OpacityMaskFilter" filterUnits="userSpaceOnUse" x="35.3" y="95.4" width="568.5" height="309.9">
					<feColorMatrix  type="matrix" values="1 0 0 0 0  0 1 0 0 0  0 0 1 0 0  0 0 0 1 0"/>
				</filter>
			</defs>
			
				<mask maskUnits="userSpaceOnUse" x="35.3" y="95.4" width="568.5" height="309.9" id="d_00000111159034442979062890000001283762566507415459_">
				<g class="st6">
					<path id="b_00000034063692558569992560000015277114372076310162_" class="st7" d="M39,27.6h561.8c1.9,0,3.4,1.5,3.4,3.4v370.6
						c0,1.9-1.5,3.4-3.4,3.4H39c-1.9,0-3.4-1.5-3.4-3.4V31C35.6,29.1,37.2,27.6,39,27.6z"/>
				</g>
			</mask>
			<path class="st8" d="M38.7,95.4h561.8c1.9,0,3.4,1.5,3.4,3.4v303.2c0,1.9-1.5,3.4-3.4,3.4H38.7c-1.9,0-3.4-1.5-3.4-3.4V98.7
				C35.3,96.9,36.8,95.4,38.7,95.4z"/>
			<defs>
				
					<filter id="Adobe_OpacityMaskFilter_00000011001384050745689540000017718620480720926907_" filterUnits="userSpaceOnUse" x="116" y="69.7" width="407.9" height="288.2">
					<feColorMatrix  type="matrix" values="1 0 0 0 0  0 1 0 0 0  0 0 1 0 0  0 0 0 1 0"/>
				</filter>
			</defs>
			
				<mask maskUnits="userSpaceOnUse" x="116" y="69.7" width="407.9" height="288.2" id="d_00000098914863223575434720000007091367028573222589_">
				<g style="filter:url(#Adobe_OpacityMaskFilter_00000011001384050745689540000017718620480720926907_);">
					<path id="b_00000064325358904817394910000017893483013702966195_" class="st7" d="M39,27.6h561.8c1.9,0,3.4,1.5,3.4,3.4v370.6
						c0,1.9-1.5,3.4-3.4,3.4H39c-1.9,0-3.4-1.5-3.4-3.4V31C35.6,29.1,37.2,27.6,39,27.6z"/>
				</g>
			</mask>
			<g class="st10">
				<g transform="translate(71.475 37.46)">
					<path class="st11" d="M47.9,32.2h113.1c1.9,0,3.4,1.5,3.4,3.4v281.5c0,1.9-1.5,3.4-3.4,3.4H47.9c-1.9,0-3.4-1.5-3.4-3.4V35.6
						C44.5,33.8,46,32.2,47.9,32.2z"/>
					<path class="st11" d="M188.1,32.2H449c1.9,0,3.4,1.5,3.4,3.4v281.5c0,1.9-1.5,3.4-3.4,3.4H188.1c-1.9,0-3.4-1.5-3.4-3.4V35.6
						C184.7,33.8,186.2,32.2,188.1,32.2z"/>
					<path class="st12" d="M199.5,47.6h238c1.9,0,3.4,1.5,3.4,3.4v60.9c0,1.9-1.5,3.4-3.4,3.4h-238c-1.9,0-3.4-1.5-3.4-3.4V50.9
						C196.2,49.1,197.7,47.6,199.5,47.6z"/>
					<path class="st12" d="M199.5,129.2h65.9c1.9,0,3.4,1.5,3.4,3.4v60.9c0,1.9-1.5,3.4-3.4,3.4h-65.9c-1.9,0-3.4-1.5-3.4-3.4v-60.9
						C196.2,130.7,197.7,129.2,199.5,129.2z"/>
					<path class="st12" d="M290,129.2h147.5c1.9,0,3.4,1.5,3.4,3.4v60.9c0,1.9-1.5,3.4-3.4,3.4H290c-1.9,0-3.4-1.5-3.4-3.4v-60.9
						C286.7,130.7,288.2,129.2,290,129.2z"/>
				</g>
			</g>
		</g>
		<g transform="translate(349)" class="st13">
			<path class="st14" d="M68.2,23.7h11.9c0.9,0,1.7,0.8,1.7,1.7l0,0c0,0.9-0.8,1.7-1.7,1.7H68.2c-0.9,0-1.7-0.8-1.7-1.7l0,0
				C66.5,24.4,67.3,23.7,68.2,23.7z"/>
			<path class="st14" d="M87.1,23.7h0.2c0.9,0,1.7,0.8,1.7,1.7l0,0c0,0.9-0.8,1.7-1.7,1.7h-0.2c-0.9,0-1.7-0.8-1.7-1.7l0,0
				C85.4,24.4,86.2,23.7,87.1,23.7z"/>
		</g>
		<g transform="translate(0 380)">
			<g>
				<path id="e_00000082362593443413327390000014497147157504780940_" class="st14" d="M23.4,70.6"/>
			</g>
			<defs>
				
					<filter id="Adobe_OpacityMaskFilter_00000155861611137127776120000006958982211237872571_" filterUnits="userSpaceOnUse" x="351.9" y="23.5" width="128.3" height="58.6">
					<feColorMatrix  type="matrix" values="1 0 0 0 0  0 1 0 0 0  0 0 1 0 0  0 0 0 1 0"/>
				</filter>
			</defs>
			
				<mask maskUnits="userSpaceOnUse" x="351.9" y="23.5" width="128.3" height="58.6" id="f_00000106867155763067630670000016859041359237640351_">
				<g style="filter:url(#Adobe_OpacityMaskFilter_00000155861611137127776120000006958982211237872571_);">
					<path id="e_00000054964574775948280550000004660574059396028862_" class="st14" d="M23.4,70.6"/>
				</g>
			</mask>
			<path class="st16" d="M363.1,23.5h105.8c6.2,0,11.2,5,11.2,11.2v36.1c0,6.2-5,11.2-11.2,11.2H363.1c-6.2,0-11.2-5-11.2-11.2V34.8
				C351.9,28.6,356.9,23.5,363.1,23.5z"/>
		</g>
		<path class="st17" d="M23.4,23.7"/>
	</g>
</g>
</svg>
